<svg xmlns="http://www.w3.org/2000/svg" viewBox="0 0 2130 380" fill="none" fill-rule="evenodd" stroke="#000" stroke-width="12" stroke-linecap="round">
  <path d="M44.5 340V40M144.5 340V40M243.5 340V40M343.5 340V40"/>
  <path d="M506 340l90-300M606 340l90-300M705 340l90-300M805 340l90-300M786 340L696 40M886 340L796 40M985 340L895 40M1085 340L995 40"/>
  <path d="M1547 334h-300M1547 234h-300M1547 135h-300M1547 35h-300"/>
  <path d="M1709 340l90-300M1809 340l90-300M1908 340l90-300M2008 340l90-300"/>
</svg>
