<svg xmlns="http://www.w3.org/2000/svg" width="32" height="32" viewBox="0 0 32 32">
  <g fill-rule="evenodd">
    <path d="M16,27 C9.92486775,27 5,22.0751322 5,16 C5,9.92486775 9.92486775,5 16,5 C22.0751322,5 27,9.92486775 27,16 C27,22.0751322 22.0751322,27 16,27 Z M16,24 C20.418278,24 24,20.418278 24,16 C24,11.581722 20.418278,8 16,8 C11.581722,8 8,11.581722 8,16 C8,20.418278 11.581722,24 16,24 Z"/>
    <circle cx="16" cy="16" r="5"/>
    <rect width="4" height="4" x="14" y="3" rx="1"/>
    <rect width="4" height="4" x="14" y="25" rx="1"/>
    <path d="M23.064443 6.10712987C23.4586261 5.7129468 24.0916726 5.70689632 24.4919062 6.10712987L25.8928701 7.50809382C26.2870532 7.90227689 26.2931037 8.53532344 25.8928701 8.935557L24.4919062 10.3365209C24.0977231 10.730704 23.4646766 10.7367545 23.064443 10.3365209L21.6634791 8.935557C21.269296 8.54137392 21.2632455 7.90832737 21.6634791 7.50809382L23.064443 6.10712987zM7.50809382 21.6634791C7.90227689 21.269296 8.53532344 21.2632455 8.935557 21.6634791L10.3365209 23.064443C10.730704 23.4586261 10.7367545 24.0916726 10.3365209 24.4919062L8.935557 25.8928701C8.54137392 26.2870532 7.90832737 26.2931037 7.50809382 25.8928701L6.10712987 24.4919062C5.7129468 24.0977231 5.70689632 23.4646766 6.10712987 23.064443L7.50809382 21.6634791zM4.0093689 18C3.45190985 18 3 17.5566468 3 16.9906311L3 15.0093689C3 14.4519098 3.44335318 14 4.0093689 14L5.9906311 14C6.54809015 14 7 14.4433532 7 15.0093689L7 16.9906311C7 17.5480902 6.55664682 18 5.9906311 18L4.0093689 18zM26.0093689 18C25.4519098 18 25 17.5566468 25 16.9906311L25 15.0093689C25 14.4519098 25.4433532 14 26.0093689 14L27.9906311 14C28.5480902 14 29 14.4433532 29 15.0093689L29 16.9906311C29 17.5480902 28.5566468 18 27.9906311 18L26.0093689 18zM6.10712987 8.935557C5.7129468 8.54137392 5.70689632 7.90832737 6.10712987 7.50809382L7.50809382 6.10712987C7.90227689 5.7129468 8.53532344 5.70689632 8.935557 6.10712987L10.3365209 7.50809382C10.730704 7.90227689 10.7367545 8.53532344 10.3365209 8.935557L8.935557 10.3365209C8.54137392 10.730704 7.90832737 10.7367545 7.50809382 10.3365209L6.10712987 8.935557zM21.6634791 24.4919062C21.269296 24.0977231 21.2632455 23.4646766 21.6634791 23.064443L23.064443 21.6634791C23.4586261 21.269296 24.0916726 21.2632455 24.4919062 21.6634791L25.8928701 23.064443C26.2870532 23.4586261 26.2931037 24.0916726 25.8928701 24.4919062L24.4919062 25.8928701C24.0977231 26.2870532 23.4646766 26.2931037 23.064443 25.8928701L21.6634791 24.4919062z"/>
  </g>
</svg>
