<svg xmlns="http://www.w3.org/2000/svg" width="32" height="32" viewBox="0 0 32 32">
  <path d="M14.2015747,8.66635811 C13.2212197,8.23777053 12.138377,8 11,8 C6.581722,8 3,11.581722 3,16 C3,20.418278 6.581722,24 11,24 C12.138377,24 13.2212197,23.7622295 14.2015747,23.3336419 C12.2323761,21.5073006 11,18.8975687 11,16 C11,13.1024313 12.2323761,10.4926994 14.2015747,8.66635811 L14.2015747,8.66635811 Z"/>
  <path d="M21,24 C16.581722,24 13,20.418278 13,16 C13,11.581722 16.581722,8 21,8 C25.418278,8 29,11.581722 29,16 C29,20.418278 25.418278,24 21,24 Z M21,22 C24.3137085,22 27,19.3137085 27,16 C27,12.6862915 24.3137085,10 21,10 C17.6862915,10 15,12.6862915 15,16 C15,19.3137085 17.6862915,22 21,22 Z"/>
</svg>
