<?xml version="1.0" encoding="UTF-8"?>
<svg width="32px" height="32px" viewBox="0 0 32 32" version="1.1" xmlns="http://www.w3.org/2000/svg" xmlns:xlink="http://www.w3.org/1999/xlink">
    <!-- Generator: Sketch 42 (36781) - http://www.bohemiancoding.com/sketch -->
    <title>github</title>
    <desc>Created with Sketch.</desc>
    <defs></defs>
    <g id="icons" stroke="none" stroke-width="1" fill="none" fill-rule="evenodd">
        <g id="github" fill="#FFFFFF">
            <path d="M15.9987108,2 C8.26882348,2 2,8.4265887 2,16.3547415 C2,22.6967351 6.01105006,28.0764586 11.5742656,29.9745626 C12.2747168,30.1067425 12.5299733,29.6634991 12.5299733,29.2828209 C12.5299733,28.9426778 12.517941,28.0394483 12.5110654,26.841898 C8.61690046,27.7089984 7.79526689,24.9173581 7.79526689,24.9173581 C7.15841493,23.2589404 6.24052304,22.8174594 6.24052304,22.8174594 C4.96939746,21.9274478 6.33678136,21.9450718 6.33678136,21.9450718 C7.74198103,22.0464098 8.48110746,23.4246059 8.48110746,23.4246059 C9.72988735,25.6179117 11.7581878,24.9843292 12.5557568,24.616869 C12.6829553,23.689847 13.0447834,23.0571457 13.4444274,22.6984975 C10.3357991,22.3363244 7.0673133,21.1044074 7.0673133,15.6039595 C7.0673133,14.0371866 7.61306363,12.7550411 8.50860984,11.752236 C8.36422235,11.3891818 7.88379017,9.92903402 8.64612173,7.95338451 C8.64612173,7.95338451 9.82098898,7.56741909 12.4955953,9.42498785 C13.61202,9.10599359 14.8100924,8.94737767 16.0004297,8.94120927 C17.1899076,8.94737767 18.3871205,9.10599359 19.5052641,9.42498785 C22.1781516,7.56741909 23.3512999,7.95338451 23.3512999,7.95338451 C24.1153504,9.92903402 23.6349182,11.3891818 23.4913902,11.752236 C24.3886553,12.7550411 24.9301084,14.0371866 24.9301084,15.6039595 C24.9301084,21.1185066 21.6564658,22.3319184 18.5383836,22.6870419 C19.040302,23.1302853 19.4880751,24.0061977 19.4880751,25.3456211 C19.4880751,27.2639926 19.4708862,28.8122603 19.4708862,29.2828209 C19.4708862,29.6670239 19.7235643,30.1137921 20.4334694,29.9736814 C25.9923877,28.0711714 30,22.6949727 30,16.3547415 C30,8.4265887 23.7311765,2 15.9987108,2" id="github-logo"></path>
        </g>
    </g>
</svg>