<?xml version="1.0" encoding="UTF-8"?>
<svg width="82px" height="82px" viewBox="0 0 82 82" version="1.1" xmlns="http://www.w3.org/2000/svg" xmlns:xlink="http://www.w3.org/1999/xlink">
    <!-- Generator: Sketch 41.2 (35397) - http://www.bohemiancoding.com/sketch -->
    <title>hand-point-right</title>
    <desc>Created with Sketch.</desc>
    <defs></defs>
    <g id="icons" stroke="none" stroke-width="1" fill="none" fill-rule="evenodd">
        <g id="hand-point-right">
            <path d="M79,24 L5.00670248,24 C1.68475771,24 -1,26.6862915 -1,30 C-1,33.3069658 1.6892923,36 5.00670248,36 L20,36 L20,58 L56.9975715,58 C62.224253,58 66.670634,54.6622642 68.3177471,50 L79,50 L79,24 Z" id="hand" stroke="#000000" stroke-width="2" fill="#EFC2A3" transform="translate(39.000000, 41.000000) scale(-1, 1) translate(-39.000000, -41.000000) "></path>
            <g id="thumb" transform="translate(25.000000, 31.000000) scale(-1, 1) translate(-25.000000, -31.000000) translate(14.000000, 20.000000)">
                <path d="M15.4962991,12 L12,12 L12,15.4962991 C12,18.8120516 9.30696577,21.5 6,21.5 C2.6862915,21.5 0,18.8190052 0,15.4962991 L0,6.50370086 C0,4.73002349 0.770596321,3.13598864 1.99354987,2.03693354 L1.99354987,2.03693354 L1.99354987,2.03693354 C3.09268603,0.788016943 4.70407124,0 6.50370086,0 L15.4962991,0 C18.8120516,0 21.5,2.69303423 21.5,6" stroke="#000000" stroke-width="2" stroke-linecap="round" fill="#EFC2A3"></path>
                <rect id="Rectangle-18" fill="#D9B093" x="3" y="2" width="9" height="8" rx="4"></rect>
                <path d="M6.5,4 L6.5,8" id="Line" stroke="#EFC2A3" stroke-linecap="round"></path>
                <path d="M8.5,4 L8.5,8" id="Line" stroke="#EFC2A3" stroke-linecap="round"></path>
                <path d="M3,16 C3,17.6568542 4.34314575,19 6,19 C7.65685425,19 9,17.6568542 9,16 L3,16 Z" id="fingernail" fill="#FFFFFF"></path>
            </g>
            <rect id="Rectangle-7" stroke="#000000" stroke-width="2" fill="#EFC2A3" transform="translate(52.500000, 54.000000) scale(-1, 1) translate(-52.500000, -54.000000) " x="40" y="48" width="25" height="12" rx="6"></rect>
            <path d="M42,51 C43.6568542,51 45,52.3431458 45,54 C45,55.6568542 43.6568542,57 42,57 L42,51 Z" id="Combined-Shape" fill="#FFFFFF" transform="translate(43.500000, 54.000000) scale(-1, 1) translate(-43.500000, -54.000000) "></path>
            <g id="Group" transform="translate(58.500000, 54.000000) scale(-1, 1) translate(-58.500000, -54.000000) translate(54.000000, 50.000000)">
                <rect id="Rectangle-18" fill="#D9B093" transform="translate(4.500000, 4.000000) scale(-1, 1) translate(-4.500000, -4.000000) " x="0" y="0" width="9" height="8" rx="4"></rect>
                <path d="M5.5,2 L5.5,6" id="Line" stroke="#EFC2A3" stroke-linecap="round" transform="translate(5.500000, 4.000000) scale(-1, 1) translate(-5.500000, -4.000000) "></path>
                <path d="M3.5,2 L3.5,6" id="Line" stroke="#EFC2A3" stroke-linecap="round" transform="translate(3.500000, 4.000000) scale(-1, 1) translate(-3.500000, -4.000000) "></path>
            </g>
            <rect id="Rectangle-7" stroke="#000000" stroke-width="2" fill="#EFC2A3" transform="translate(52.500000, 42.000000) scale(-1, 1) translate(-52.500000, -42.000000) " x="40" y="36" width="25" height="12" rx="6"></rect>
            <path d="M42,39 C43.6568542,39 45,40.3431458 45,42 C45,43.6568542 43.6568542,45 42,45 L42,39 Z" id="Combined-Shape" fill="#FFFFFF" transform="translate(43.500000, 42.000000) scale(-1, 1) translate(-43.500000, -42.000000) "></path>
            <g id="Group-2" transform="translate(58.500000, 42.000000) scale(-1, 1) translate(-58.500000, -42.000000) translate(54.000000, 38.000000)">
                <rect id="Rectangle-18" fill="#D9B093" transform="translate(4.500000, 4.000000) scale(-1, 1) translate(-4.500000, -4.000000) " x="0" y="0" width="9" height="8" rx="4"></rect>
                <path d="M5.5,2 L5.5,6" id="Line" stroke="#EFC2A3" stroke-linecap="round" transform="translate(5.500000, 4.000000) scale(-1, 1) translate(-5.500000, -4.000000) "></path>
                <path d="M3.5,2 L3.5,6" id="Line" stroke="#EFC2A3" stroke-linecap="round" transform="translate(3.500000, 4.000000) scale(-1, 1) translate(-3.500000, -4.000000) "></path>
            </g>
            <path d="M62,27 L62,33" id="Line" stroke="#D9B093" stroke-width="2" stroke-linecap="round"></path>
            <path d="M20,36 L20,51" id="Line" stroke="#D9B093" stroke-width="2" stroke-linecap="round" transform="translate(20.000000, 43.500000) scale(-1, 1) translate(-20.000000, -43.500000) "></path>
        </g>
    </g>
</svg>