<?xml version="1.0" encoding="UTF-8"?>
<svg width="32px" height="32px" viewBox="0 0 32 32" version="1.1" xmlns="http://www.w3.org/2000/svg" xmlns:xlink="http://www.w3.org/1999/xlink">
    <!-- Generator: Sketch 41.2 (35397) - http://www.bohemiancoding.com/sketch -->
    <title>menu-close</title>
    <desc>Created with Sketch.</desc>
    <defs></defs>
    <g id="icons" stroke="none" stroke-width="1" fill="none" fill-rule="evenodd">
        <g id="menu-close" fill="currentColor">
            <path d="M16.0023185,12.7757031 L8.90738033,5.67845949 C8.00933949,4.78012685 6.56321417,4.77976409 5.67149484,5.67177317 C4.7735586,6.57000118 4.7827681,8.0130083 5.67817898,8.90871013 L12.7731172,16.0059538 L5.67817898,23.1031974 C4.7827681,23.9988992 4.7735586,25.4419063 5.67149484,26.3401343 C6.56321417,27.2321434 8.00933949,27.2317807 8.90738033,26.333448 L16.0023185,19.2362044 L23.0972567,26.333448 C23.9952976,27.2317807 25.4414229,27.2321434 26.3331422,26.3401343 C27.2310785,25.4419063 27.221869,23.9988992 26.3264581,23.1031974 L19.2315199,16.0059538 L26.3264581,8.90871013 C27.221869,8.0130083 27.2310785,6.57000118 26.3331422,5.67177317 C25.4414229,4.77976409 23.9952976,4.78012685 23.0972567,5.67845949 L16.0023185,12.7757031 Z" id="Combined-Shape"></path>
        </g>
    </g>
</svg>
