<?xml version="1.0" encoding="UTF-8"?>
<svg width="32px" height="32px" viewBox="0 0 32 32" version="1.1" xmlns="http://www.w3.org/2000/svg" xmlns:xlink="http://www.w3.org/1999/xlink">
    <!-- Generator: Sketch 42 (36781) - http://www.bohemiancoding.com/sketch -->
    <title>twitter</title>
    <desc>Created with Sketch.</desc>
    <defs></defs>
    <g id="icons" stroke="none" stroke-width="1" fill="none" fill-rule="evenodd">
        <g id="twitter" fill="#FFFFFF">
            <path d="M10.805888,27.755936 C21.372304,27.755936 27.150608,19.001904 27.150608,11.411104 C27.150608,11.162352 27.145568,10.91472 27.134256,10.668432 C28.255824,9.857664 29.230896,8.845856 30,7.694048 C28.97072,8.151232 27.86304,8.459456 26.70104,8.598336 C27.887008,7.887248 28.79768,6.761984 29.227088,5.42056 C28.116832,6.078672 26.887968,6.557248 25.579472,6.81496 C24.531152,5.698432 23.038192,5 21.386192,5 C18.213456,5 15.640704,7.572752 15.640704,10.744256 C15.640704,11.195056 15.691216,11.633424 15.789776,12.053984 C11.015552,11.81408 6.78184,9.527936 3.948912,6.052128 C3.454992,6.900864 3.170848,7.887248 3.170848,8.939376 C3.170848,10.932416 4.18512,12.691824 5.727248,13.721104 C4.784992,13.692208 3.899632,13.433264 3.125376,13.002512 C3.124144,13.02648 3.124144,13.05056 3.124144,13.07576 C3.124144,15.858176 5.104528,18.180944 7.732944,18.70768 C7.250448,18.838944 6.742752,18.909728 6.218592,18.909728 C5.848432,18.909728 5.488464,18.873104 5.138688,18.806128 C5.869936,21.088352 7.990544,22.749312 10.50528,22.796016 C8.538672,24.336912 6.061904,25.255088 3.370432,25.255088 C2.906864,25.255088 2.44968,25.228656 2,25.175568 C4.542512,26.804832 7.561136,27.755936 10.805888,27.755936" id="twitter-logo"></path>
        </g>
    </g>
</svg>